# xmcd
#
# Track frame offsets: 
#        150
#        18025
#        37665
#        58225
#        70697
#        89897
#        106562
#        126015
#        143032
#        164782
#
# Disc length: 2374 seconds
#
# Revision: 4
# Processed by: cddbd v1.5.2PL0 Copyright (c) Steve Scherf et al.
# Submitted via: ExactAudioCopyFreeDBPlugin 1.0
#
DISCID=7f09440a
DTITLE=Bruce Carroll - Walk On
DYEAR=1993
DGENRE=Christian
TTITLE0=Walk On
TTITLE1=Good Life
TTITLE2=Road Back Home
TTITLE3=It Took You
TTITLE4=Answer To Prayer
TTITLE5=The Middle Ages
TTITLE6=There Is Prayer
TTITLE7=Sometimes When We Love
TTITLE8=What We Were Fighting For
TTITLE9=Right At Home
EXTD=1993, Word\nProduced by Brown Bannister and Tom Hemby\nExecutive 
EXTD=Producer: John Mays
EXTT0=
EXTT1=
EXTT2=
EXTT3=
EXTT4=
EXTT5=
EXTT6=
EXTT7=
EXTT8=
EXTT9=
PLAYORDER=
